<svg xmlns="http://www.w3.org/2000/svg" viewBox="0 0 24 24" id="like"><path d="M21.57,7.07a5.45,5.45,0,0,0-3.83-3.92C16.62,2.87,14.45,2.77,12,5,9.56,2.78,7.4,2.87,6.28,3.15A5.45,5.45,0,0,0,2.44,7.06a7,7,0,0,0,2,6.81l6.83,6.83A1,1,0,0,0,12,21a1,1,0,0,0,.7-.3l6.83-6.82A7,7,0,0,0,21.57,7.07Zm-3.46,5.39h0L12,18.58,5.86,12.46A5,5,0,0,1,4.36,7.6a3.49,3.49,0,0,1,2.4-2.51A3,3,0,0,1,7.49,5a5.48,5.48,0,0,1,3.77,2,1,1,0,0,0,.72.32A1,1,0,0,0,12.71,7c1.52-1.6,3.14-2.29,4.55-1.94A3.46,3.46,0,0,1,19.64,7.6,5,5,0,0,1,18.11,12.46Z"></path></svg>